<svg width="393" height="266" viewBox="0 0 393 266" fill="none" xmlns="http://www.w3.org/2000/svg">
<path d="M366.803 189.654C425.875 182.495 439.036 139.97 438.233 119.602L402.11 -178.468L-142.9 -112.419L-106.8 185.471C-107.937 184.348 -109.031 183.247 -110.081 182.172C-127.916 162.191 -98.349 233.612 -102.09 224.336L-106.8 185.471C-65.5738 226.177 31.9335 296.276 99.5416 251.231C152.183 216.158 199.446 188.464 222.104 185.047C286.802 177.207 307.731 196.813 366.803 189.654Z" fill="#2931A5"/>
<path d="M366.803 189.654C425.875 182.495 439.036 139.97 438.233 119.602L402.11 -178.468L-142.9 -112.419L-106.8 185.471C-107.937 184.348 -109.031 183.247 -110.081 182.172C-127.916 162.191 -98.349 233.612 -102.09 224.336L-106.8 185.471C-65.5738 226.177 31.9335 296.276 99.5416 251.231C152.183 216.158 199.446 188.464 222.104 185.047C286.802 177.207 307.731 196.813 366.803 189.654Z" fill="url(#paint0_linear_130_645)"/>
<defs>
<linearGradient id="paint0_linear_130_645" x1="129.605" y1="-145.444" x2="181.097" y2="279.448" gradientUnits="userSpaceOnUse">
<stop stop-color="#625CFF"/>
<stop offset="1" stop-color="#333EE4"/>
</linearGradient>
</defs>
</svg>
